<svg width="900" height="1073" viewBox="0 0 900 1073" fill="none" xmlns="http://www.w3.org/2000/svg">
<path d="M107.167 3.55068C57.3533 14.4343 14.8651 55.876 3.14427 105.271C0.42335 116.992 0.00474785 170.992 0.00474785 536.222C0.00474785 994.592 -0.623155 965.708 12.5628 993.545C25.7488 1020.96 48.3533 1043.57 76.3997 1057.59C107.376 1072.87 82.888 1072.03 501.491 1072.03C914.86 1072.03 887.233 1072.87 895.814 1059.06C899.791 1052.57 900 1048.59 900 990.825C900 925.104 899.581 921.337 889.116 914.639C875.93 905.848 859.605 908.569 850.186 920.918L844.535 928.243L843.907 971.987L843.07 1015.52H486.63C230.655 1015.52 126.841 1014.89 118.888 1013.22C84.5625 1005.89 59.237 976.383 56.9347 941.011C54.8417 907.313 71.7951 878.639 102.353 863.988L116.167 857.5L497.095 856.453C780.28 855.616 879.488 854.779 883.465 852.895C886.395 851.639 891.419 847.453 894.349 843.895L900 837.197V428.851C900 22.8064 900 20.2948 895.814 13.3878C887.233 -0.426041 915.279 0.411164 498.77 0.620465C186.701 0.620465 118.051 1.24837 107.167 3.55068ZM198.422 113.434C212.236 121.806 211.399 102.55 211.399 424.874V717.686L206.585 724.803C194.236 743.431 170.585 742.803 159.074 723.966C154.888 717.477 154.888 710.989 154.888 424.665C154.888 174.759 155.306 131.015 157.818 124.945C161.795 115.736 172.26 109.248 183.143 109.248C187.957 109.248 194.446 111.132 198.422 113.434Z" fill="white"/>
</svg>
